<svg width="150" height="36" viewBox="0 0 150 36" fill="none" xmlns="http://www.w3.org/2000/svg">
<path d="M8.91875 3.36456L12.7995 17.7754V1.93183C13.1072 1.86038 13.4183 1.79745 13.7323 1.74332V17.7768L18.0972 1.56836C18.4117 1.59669 18.7237 1.63377 19.033 1.67934L14.6329 18.0184L23.3791 2.94539C23.664 3.07293 23.9447 3.20824 24.2208 3.35106L15.442 18.4803L27.9748 6.01016C28.2008 6.22277 28.4207 6.44163 28.6344 6.66647L16.0997 19.1384L31.3068 10.4025C31.4503 10.6773 31.5863 10.9566 31.7144 11.2401L16.5694 19.9403L32.9861 15.5635C33.0319 15.8712 33.0691 16.1816 33.0976 16.4946L16.8078 20.8376L32.9215 20.8376C32.8671 21.1501 32.8038 21.4596 32.732 21.7657L16.8053 21.7657L31.2914 25.6279C31.1426 25.9113 30.9858 26.1899 30.8213 26.4634L16.568 22.6633L28.4728 29.5022C28.2474 29.7328 28.0153 29.9569 27.7768 30.1741L16.1027 23.4677L24.9363 32.2572C24.6569 32.4196 24.3723 32.5741 24.0828 32.7205L15.4421 24.1231L21.1036 33.8799C20.7936 33.9671 20.4799 34.0455 20.1629 34.115L14.6335 24.5857L17.2994 34.4854C17.0618 34.4954 16.8229 34.5005 16.5828 34.5005C16.5008 34.5005 16.419 34.4999 16.3373 34.4987L13.7323 24.8251V34.2576C13.4182 34.2035 13.1072 34.1406 12.7995 34.0691V24.8267L10.5026 33.3561C10.2096 33.2412 9.9207 33.1182 9.63617 32.9874L11.8982 24.5877L7.65195 31.9056C7.38907 31.7381 7.13125 31.5634 6.87878 31.3819L11.0916 24.1215L5.19183 29.9918C4.96586 29.7792 4.74589 29.5604 4.53222 29.3355L10.4301 23.4671L3.1354 27.6577C2.95287 27.4065 2.77728 27.15 2.6089 26.8884L9.96701 22.6614L1.52099 24.9132C1.38952 24.6301 1.26589 24.3427 1.15035 24.0512L9.72261 21.7657L0.433603 21.7657C0.361777 21.4596 0.298519 21.1501 0.244094 20.8376L9.7201 20.8376L0.00168521 18.2466C0.000481746 18.1647 -0.00012207 18.0827 -0.00012207 18.0005C-0.00012207 17.7622 0.00495418 17.5251 0.0150049 17.2893L9.96566 19.9422L0.38703 14.4396C0.456776 14.1242 0.535596 13.8121 0.623205 13.5036L10.4331 19.139L1.78883 10.538C1.93589 10.2499 2.0912 9.96675 2.25445 9.68873L11.0917 18.4818L4.34895 6.86139C4.56728 6.62412 4.7925 6.39322 5.02428 6.16901L11.8987 18.0163L8.07899 3.83221C8.35385 3.66854 8.63387 3.51255 8.91875 3.36456Z" fill="#0796D3"/>
<path d="M43.604 25.432H47.213V19.195H54.41V16.024H47.213V13.357H54.8744V10.207H43.604V25.432Z" fill="#101828"/>
<path d="M61.0083 16.486C62.3802 16.486 63.4777 17.326 63.4777 19.741C63.4777 22.114 62.4224 23.017 61.0083 23.017C59.5942 23.017 58.539 22.114 58.539 19.741C58.539 17.326 59.6365 16.486 61.0083 16.486ZM61.0083 13.798C57.8636 13.798 54.9932 15.646 54.9932 19.741C54.9932 23.836 57.8636 25.705 61.0083 25.705C64.153 25.705 67.0234 23.836 67.0234 19.741C67.0234 15.646 64.153 13.798 61.0083 13.798Z" fill="#101828"/>
<path d="M73.7104 13.798C70.2702 13.798 67.9064 16.129 67.9064 19.72C67.9064 23.311 69.9747 25.705 73.7104 25.705C75.9898 25.705 78.7124 24.634 79.4933 21.274H76.243C75.9898 22.345 75.2089 23.017 73.9214 23.017C72.6762 23.017 71.4521 22.198 71.4521 19.741C71.4521 17.326 72.6762 16.486 73.9214 16.486C74.9556 16.486 75.7787 16.948 76.0953 18.271H79.3456C78.6702 14.869 76.0742 13.798 73.7104 13.798Z" fill="#101828"/>
<path d="M87.676 18.376C83.2649 18.712 80.1202 19.615 80.1202 22.387C80.1202 24.445 81.8931 25.705 84.0458 25.705C85.6709 25.705 87.0217 25.264 87.8659 24.067L87.9081 25.432H91.3272C91.1584 24.718 91.074 23.395 91.074 22.156V20.98L91.1162 18.523C91.1795 15.1 89.3222 13.777 86.0508 13.777C82.674 13.777 80.6478 15.667 80.479 17.788H83.7292C83.877 16.696 84.6368 16.129 85.7554 16.129C87.0217 16.129 87.676 16.591 87.676 17.935V18.376ZM87.7604 20.686C87.7604 22.765 86.7051 23.353 85.3122 23.353C84.4046 23.353 83.7081 22.87 83.7081 22.135C83.7081 20.917 85.3333 20.644 87.7604 20.413V20.686Z" fill="#101828"/>
<path d="M96.3858 10.207H92.9034V25.432H96.3858V10.207Z" fill="#101828"/>
<path d="M98.6062 10.207V25.432H102.215V20.161H104.495C108.462 20.161 111.438 19.174 111.438 15.163C111.438 11.173 108.462 10.207 104.495 10.207H98.6062ZM104.6 13.231C106.289 13.231 107.618 13.567 107.618 15.163C107.618 16.759 106.289 17.137 104.6 17.137H102.215V13.231H104.6Z" fill="#101828"/>
<path d="M117.556 16.486C118.928 16.486 120.026 17.326 120.026 19.741C120.026 22.114 118.97 23.017 117.556 23.017C116.142 23.017 115.087 22.114 115.087 19.741C115.087 17.326 116.184 16.486 117.556 16.486ZM117.556 13.798C114.412 13.798 111.541 15.646 111.541 19.741C111.541 23.836 114.412 25.705 117.556 25.705C120.701 25.705 123.571 23.836 123.571 19.741C123.571 15.646 120.701 13.798 117.556 13.798Z" fill="#101828"/>
<path d="M124.965 14.134V25.432H128.468V14.134H124.965ZM124.965 10.207V12.979H128.447V10.207H124.965Z" fill="#101828"/>
<path d="M134.023 14.134H130.54V25.432H134.023V19.636C134.023 17.536 134.635 16.57 136.133 16.57C137.822 16.57 137.885 17.893 137.885 19.51V25.432H141.368V18.649C141.368 15.583 140.46 13.882 137.548 13.882C135.754 13.882 134.529 14.785 134.023 15.625V14.134Z" fill="#101828"/>
<path d="M143.776 14.134H141.982V16.591H143.776V22.261C143.776 24.886 144.725 25.432 147.532 25.432H149.748V22.933H148.757C147.596 22.933 147.258 22.723 147.258 21.652V16.591H149.748V14.134H147.258V11.047H143.776V14.134Z" fill="#101828"/>
</svg>
